<?xml version="1.0" encoding="utf-8"?>
<!-- Generator: Adobe Illustrator 22.0.0, SVG Export Plug-In . SVG Version: 6.00 Build 0)  -->
<svg version="1.1" id="图层_1" xmlns="http://www.w3.org/2000/svg" xmlns:xlink="http://www.w3.org/1999/xlink" x="0px" y="0px"
	 viewBox="0 0 100 100" style="enable-background:new 0 0 100 100;" xml:space="preserve">
<style type="text/css">
	.st0{fill:#E95263;}
	.st1{fill:#D23452;}
</style>
<g>
	<circle class="st0" cx="88.6" cy="50.1" r="9.9"/>
	<path class="st0" d="M49.8,98.3c-26.6,0-48.2-21.6-48.2-48.2c0-12.6,4.9-24.1,12.8-32.7c1-1.1,2-1.7,3.4-1.7c2.4,0,4.3,1.9,4.3,4.3
		c0,0.8-0.3,1.5-0.7,2.4l0,0c0,0,0,0,0,0c-1,2.9-1.5,6-1.5,9.3c0,16.4,13.3,29.7,29.7,29.8c0,0,0.1,0,0.1,0
		c10.2,0,18.4,8.2,18.4,18.4S59.9,98.3,49.8,98.3z"/>
	<g>
		<path class="st0" d="M5.2,31.8c0.2-0.4,0.3-0.7,0.5-1.1C5.5,31.1,5.3,31.5,5.2,31.8z"/>
		<path class="st0" d="M4.4,34c0.1-0.4,0.3-0.7,0.4-1.1C4.6,33.2,4.5,33.6,4.4,34z"/>
		<path class="st0" d="M3,38.3c0.1-0.3,0.2-0.6,0.3-1C3.2,37.7,3.1,38,3,38.3z"/>
		<path class="st0" d="M3.7,36.1c0.1-0.3,0.2-0.7,0.3-1C3.9,35.5,3.8,35.8,3.7,36.1z"/>
		<path class="st0" d="M2.5,40.6c0.1-0.3,0.1-0.6,0.2-0.9C2.7,40,2.6,40.3,2.5,40.6z"/>
		<path class="st0" d="M1.8,45.3c0-0.2,0.1-0.5,0.1-0.7C1.9,44.8,1.9,45.1,1.8,45.3z"/>
		<path class="st0" d="M2.1,42.9c0-0.3,0.1-0.5,0.1-0.8C2.2,42.4,2.2,42.7,2.1,42.9z"/>
		<path class="st0" d="M17.8,15.7c2.4,0,4.3,1.9,4.3,4.3c0,0.8-0.3,1.5-0.7,2.4c-1,2.9-1.5,6-1.5,9.3c0,7,2.4,13.3,6.4,18.4
			c5.4-6.9,13.8-11.3,23.3-11.4c0,0,0.1,0,0.1,0c10.2,0,18.4-8.2,18.4-18.4C68.2,10.2,59.9,2,49.8,2C36,2,23.6,7.7,14.8,17
			C15.7,16.2,16.6,15.7,17.8,15.7z"/>
		<path class="st0" d="M10.6,22.2c0.3-0.4,0.6-0.8,0.9-1.2C11.2,21.3,10.9,21.7,10.6,22.2z"/>
		<path class="st0" d="M11.9,20.4c0.3-0.4,0.7-0.8,1-1.2C12.5,19.6,12.2,20,11.9,20.4z"/>
		<path class="st0" d="M13.3,18.7c0.4-0.4,0.7-0.8,1.1-1.2C14,17.9,13.6,18.3,13.3,18.7z"/>
		<path class="st0" d="M1.7,47.7c0-0.2,0-0.3,0-0.5C1.7,47.3,1.7,47.5,1.7,47.7z"/>
		<path class="st0" d="M7.1,27.8c0.2-0.4,0.4-0.8,0.6-1.2C7.5,27,7.3,27.4,7.1,27.8z"/>
		<path class="st0" d="M9.3,24c0.3-0.4,0.5-0.8,0.8-1.2C9.9,23.1,9.6,23.6,9.3,24z"/>
		<path class="st0" d="M6.1,29.8c0.2-0.4,0.4-0.8,0.6-1.2C6.5,29,6.3,29.4,6.1,29.8z"/>
		<path class="st0" d="M8.2,25.9c0.2-0.4,0.5-0.8,0.7-1.2C8.6,25,8.4,25.4,8.2,25.9z"/>
		<path class="st0" d="M1.6,50.1C1.6,50.1,1.6,50.1,1.6,50.1c0,0.8,0,1.6,0.1,2.4C1.6,51.7,1.6,50.9,1.6,50.1z"/>
		<path class="st0" d="M8.2,74.4c-0.1-0.3-0.3-0.5-0.4-0.8C7.9,73.9,8,74.1,8.2,74.4z"/>
		<path class="st0" d="M9.3,76.3C9.2,76,9,75.8,8.9,75.6C9,75.8,9.2,76,9.3,76.3z"/>
		<path class="st0" d="M7.1,72.4c-0.1-0.3-0.3-0.6-0.4-0.8C6.8,71.9,6.9,72.2,7.1,72.4z"/>
		<path class="st0" d="M14.4,82.8C14.4,82.8,14.4,82.8,14.4,82.8c0.3,0.3,0.5,0.6,0.7,0.8C14.8,83.3,14.6,83,14.4,82.8z"/>
		<path class="st0" d="M13.3,81.5c-0.1-0.1-0.3-0.3-0.4-0.4C13,81.2,13.1,81.4,13.3,81.5z"/>
		<path class="st0" d="M11.9,79.8c-0.1-0.2-0.3-0.3-0.4-0.5C11.6,79.5,11.7,79.7,11.9,79.8z"/>
		<path class="st0" d="M6.1,70.4c-0.1-0.3-0.3-0.6-0.4-0.9C5.8,69.8,5.9,70.1,6.1,70.4z"/>
		<path class="st0" d="M10.6,78.1c-0.1-0.2-0.3-0.4-0.4-0.6C10.3,77.7,10.4,77.9,10.6,78.1z"/>
		<path class="st0" d="M2.1,57.3C2,56.8,2,56.2,1.9,55.7C2,56.2,2,56.8,2.1,57.3z"/>
		<path class="st0" d="M2.5,59.6c-0.1-0.5-0.2-1-0.3-1.5C2.4,58.6,2.4,59.1,2.5,59.6z"/>
		<path class="st0" d="M1.8,54.9c-0.1-0.6-0.1-1.3-0.1-1.9C1.7,53.7,1.8,54.3,1.8,54.9z"/>
		<path class="st0" d="M5.2,68.4c-0.1-0.3-0.3-0.7-0.4-1C4.9,67.7,5,68,5.2,68.4z"/>
		<path class="st0" d="M3,61.9c-0.1-0.5-0.2-0.9-0.3-1.4C2.8,61,2.9,61.4,3,61.9z"/>
		<path class="st0" d="M4.4,66.3c-0.1-0.4-0.3-0.8-0.4-1.1C4.1,65.5,4.2,65.9,4.4,66.3z"/>
		<path class="st0" d="M3.7,64.1c-0.1-0.4-0.2-0.8-0.4-1.3C3.4,63.3,3.5,63.7,3.7,64.1z"/>
	</g>
	<path class="st1" d="M26.4,50.4c5.4-6.9,13.8-11.3,23.3-11.4c0,0,0.1,0,0.1,0c10.2,0,18.4-8.2,18.4-18.4c0-2.5-0.5-4.8-1.4-7
		c-0.1,0-0.3,0-0.4,0c-19.9,0-37,12.1-44.3,29.3C23.1,45.7,24.6,48.2,26.4,50.4z"/>
</g>
</svg>
