<svg xmlns="http://www.w3.org/2000/svg" viewBox="0 0 1712.7 261.32"><defs><style>.cls-1{fill:#fa5166;}.cls-2{opacity:0.2;}.cls-3{fill:#fff;}.cls-4{fill:#fce3e5;}.cls-5{fill:#f6aab1;}.cls-6{fill:#eee;}</style></defs><title>资源 5</title><g id="图层_2" data-name="图层 2"><g id="图层_1-2" data-name="图层 1"><rect class="cls-1" width="261.32" height="261.32" rx="31.89" ry="31.89"/><g class="cls-2"><path class="cls-3" d="M204.57,112.36a18.48,18.48,0,1,0,18.48,18.48A18.49,18.49,0,0,0,204.57,112.36Z"/><path class="cls-3" d="M132.25,109.69h.17a34.22,34.22,0,0,0,34.21-34.22c0-1.15-.06-2.3-.17-3.42-.09-1-.25-1.87-.42-2.79,0-.16,0-.34-.08-.5a33.49,33.49,0,0,0-1.88-6.23v0h0a34.2,34.2,0,0,0-31.65-21.25,89.31,89.31,0,0,0-65,28l.36-.3a13,13,0,0,0-1.07,1,89.22,89.22,0,0,0-23.84,60.8v0h0c0,1.4,0,2.79.11,4.17a89.18,89.18,0,0,0,23.62,56.51l.11.13a8.48,8.48,0,0,0,1.25,1.29,89.27,89.27,0,0,0,64.49,27.45,34.22,34.22,0,0,0,0-68.44h-.17A55.2,55.2,0,0,1,88.94,130.8,55.24,55.24,0,0,1,132.25,109.69ZM86.42,127.38c.24.36.51.71.76,1.06-.3-.41-.61-.81-.89-1.24Zm-2.52-4.13c-.27-.48-.5-1-.75-1.48,0,.11.11.21.17.32C83.52,122.47,83.69,122.87,83.9,123.25Zm-2.2-4.49c-.2-.45-.39-.91-.57-1.36.09.22.2.44.29.67S81.6,118.53,81.7,118.76ZM81,116.91c0-.08,0-.15-.08-.22l.08.21Zm.2-42h0A6.75,6.75,0,0,1,81.08,76,6.75,6.75,0,0,0,81.15,74.9ZM79.89,114c-.23-.69-.44-1.39-.64-2.09C79.45,112.62,79.66,113.32,79.89,114ZM68.32,68.5a9,9,0,0,1,.85-.57A9,9,0,0,0,68.32,68.5Zm2.47-1.3a7.52,7.52,0,0,0-1,.39A7.52,7.52,0,0,1,70.79,67.2Zm.54-.17a7.47,7.47,0,0,1,1.74-.21A7.47,7.47,0,0,0,71.33,67Zm7.17,42c-.16-.67-.31-1.34-.44-2C78.19,107.65,78.34,108.32,78.5,109Zm-1-5.39c-.07-.58-.17-1.16-.22-1.74C77.37,102.44,77.47,103,77.54,103.6Z"/></g><circle class="cls-3" cx="196.51" cy="128.63" r="18.06"/><path class="cls-4" d="M126,216.13A87.5,87.5,0,0,1,61.77,69.19,8.11,8.11,0,0,1,68,66.07,8,8,0,0,1,75.91,74a8.76,8.76,0,0,1-1.31,4.35h0s0,0,0,0a54.1,54.1,0,0,0,51.25,71H126a33.44,33.44,0,0,1,0,66.87Z"/><path class="cls-3" d="M45,95.41c.28-.67.57-1.35.87-2C45.59,94.06,45.3,94.74,45,95.41Z"/><path class="cls-3" d="M43.55,99.26c.23-.66.47-1.3.72-1.94C44,98,43.78,98.6,43.55,99.26Z"/><path class="cls-3" d="M41.13,107.23c.14-.59.31-1.17.47-1.75C41.44,106.06,41.27,106.64,41.13,107.23Z"/><path class="cls-3" d="M42.25,103.2c.18-.63.39-1.24.59-1.86C42.64,102,42.43,102.57,42.25,103.2Z"/><path class="cls-3" d="M40.19,111.35c.11-.55.24-1.09.36-1.63C40.43,110.26,40.3,110.8,40.19,111.35Z"/><path class="cls-3" d="M38.92,119.84c0-.44.11-.87.16-1.3C39,119,39,119.4,38.92,119.84Z"/><path class="cls-3" d="M39.46,115.56c.07-.51.17-1,.25-1.5C39.63,114.56,39.53,115.05,39.46,115.56Z"/><path class="cls-4" d="M68,66.07A8,8,0,0,1,75.91,74a8.76,8.76,0,0,1-1.31,4.35,54.08,54.08,0,0,0,8.9,50.3A54,54,0,0,1,125.85,108H126a33.44,33.44,0,0,0,0-66.87A87.26,87.26,0,0,0,62.47,68.47,7.7,7.7,0,0,1,68,66.07Z"/><path class="cls-3" d="M54.77,77.81c.54-.76,1.09-1.52,1.66-2.26C55.86,76.29,55.31,77.05,54.77,77.81Z"/><path class="cls-3" d="M57.16,74.62c.59-.76,1.2-1.52,1.82-2.26C58.36,73.1,57.75,73.86,57.16,74.62Z"/><path class="cls-3" d="M59.68,71.56q1-1.14,2-2.25Q60.66,70.42,59.68,71.56Z"/><path class="cls-3" d="M38.59,124.19c0-.31,0-.61.07-.93C38.64,123.58,38.61,123.88,38.59,124.19Z"/><path class="cls-3" d="M48.46,88c.38-.72.77-1.44,1.17-2.15C49.23,86.6,48.84,87.32,48.46,88Z"/><path class="cls-3" d="M52.52,81.1c.49-.75,1-1.5,1.49-2.23C53.5,79.61,53,80.35,52.52,81.1Z"/><path class="cls-3" d="M46.66,91.68c.33-.71.67-1.4,1-2.1C47.33,90.28,47,91,46.66,91.68Z"/><path class="cls-3" d="M50.42,84.52c.43-.74.87-1.48,1.33-2.2C51.29,83,50.85,83.78,50.42,84.52Z"/><path class="cls-3" d="M38.48,128.62h0c0,1.48,0,3,.11,4.41C38.52,131.57,38.48,130.1,38.48,128.62Z"/><path class="cls-3" d="M50.42,172.71c-.27-.45-.53-.91-.79-1.37C49.89,171.8,50.15,172.26,50.42,172.71Z"/><path class="cls-3" d="M52.52,176.13c-.26-.41-.52-.81-.77-1.22C52,175.32,52.26,175.72,52.52,176.13Z"/><path class="cls-3" d="M48.46,169.19c-.26-.51-.53-1-.79-1.54Z"/><path class="cls-3" d="M61.66,187.92l.11.12A8,8,0,0,0,63,189.33C62.56,188.86,62.1,188.4,61.66,187.92Z"/><path class="cls-3" d="M59.68,185.67l-.7-.8Z"/><path class="cls-3" d="M57.16,182.61l-.73-.93Z"/><path class="cls-3" d="M46.66,165.55c-.26-.56-.52-1.14-.77-1.71C46.14,164.41,46.4,165,46.66,165.55Z"/><path class="cls-3" d="M54.77,179.43,54,178.36Z"/><path class="cls-3" d="M39.46,141.67c-.15-1-.27-2-.38-3C39.19,139.69,39.31,140.69,39.46,141.67Z"/><path class="cls-3" d="M40.19,145.88c-.18-.9-.33-1.8-.48-2.71C39.86,144.08,40,145,40.19,145.88Z"/><path class="cls-3" d="M38.92,137.39c-.11-1.13-.19-2.28-.26-3.42C38.73,135.11,38.81,136.26,38.92,137.39Z"/><path class="cls-3" d="M45,161.82c-.26-.63-.5-1.27-.75-1.9C44.52,160.55,44.76,161.19,45,161.82Z"/><path class="cls-3" d="M41.13,150c-.21-.82-.39-1.65-.58-2.48C40.74,148.35,40.92,149.18,41.13,150Z"/><path class="cls-3" d="M43.55,158c-.25-.69-.48-1.38-.71-2.08C43.07,156.59,43.3,157.28,43.55,158Z"/><path class="cls-3" d="M42.25,154c-.23-.76-.44-1.52-.65-2.29C41.81,152.52,42,153.28,42.25,154Z"/><path class="cls-5" d="M83.5,128.62A54,54,0,0,1,125.85,108H126a33.42,33.42,0,0,0,30.93-46.1l-.71,0a87.55,87.55,0,0,0-80.53,53.2A53.89,53.89,0,0,0,83.5,128.62Z"/><circle class="cls-3" cx="196.3" cy="128.46" r="18.06"/><path class="cls-3" d="M125.8,216A87.5,87.5,0,0,1,61.56,69a8.11,8.11,0,0,1,6.25-3.12,8,8,0,0,1,7.89,7.9,8.76,8.76,0,0,1-1.31,4.35h0s0,0,0,0a54.1,54.1,0,0,0,51.25,70.95h.16a33.44,33.44,0,0,1,0,66.87Z"/><path class="cls-3" d="M44.81,95.24c.28-.68.57-1.35.87-2C45.38,93.89,45.09,94.56,44.81,95.24Z"/><path class="cls-3" d="M43.34,99.09c.23-.66.47-1.3.72-2C43.81,97.79,43.57,98.43,43.34,99.09Z"/><path class="cls-3" d="M40.92,107.06c.14-.59.31-1.17.47-1.75C41.23,105.89,41.06,106.47,40.92,107.06Z"/><path class="cls-3" d="M42,103c.18-.62.39-1.23.59-1.85C42.43,101.79,42.22,102.4,42,103Z"/><path class="cls-3" d="M40,111.18c.11-.55.24-1.09.36-1.64C40.22,110.09,40.09,110.63,40,111.18Z"/><path class="cls-3" d="M38.71,119.67c0-.44.11-.87.16-1.3C38.82,118.8,38.75,119.23,38.71,119.67Z"/><path class="cls-3" d="M39.25,115.38c.07-.5.17-1,.25-1.49C39.42,114.39,39.32,114.88,39.25,115.38Z"/><path class="cls-3" d="M67.81,65.9a8,8,0,0,1,7.89,7.9,8.76,8.76,0,0,1-1.31,4.35,54.06,54.06,0,0,0,8.9,50.29,54,54,0,0,1,42.35-20.65h.16a33.44,33.44,0,0,0,0-66.87A87.26,87.26,0,0,0,62.26,68.3,7.7,7.7,0,0,1,67.81,65.9Z"/><path class="cls-3" d="M54.56,77.63c.54-.76,1.09-1.51,1.66-2.25C55.65,76.12,55.1,76.87,54.56,77.63Z"/><path class="cls-3" d="M57,74.45c.59-.76,1.2-1.52,1.82-2.26C58.15,72.93,57.54,73.69,57,74.45Z"/><path class="cls-3" d="M59.47,71.38c.65-.75,1.31-1.51,2-2.24C60.78,69.87,60.12,70.63,59.47,71.38Z"/><path class="cls-3" d="M38.38,124c0-.31,0-.62.07-.93C38.43,123.4,38.4,123.71,38.38,124Z"/><path class="cls-3" d="M48.25,87.87c.38-.72.77-1.44,1.17-2.15C49,86.43,48.63,87.15,48.25,87.87Z"/><path class="cls-3" d="M52.31,80.93c.49-.75,1-1.5,1.49-2.23C53.29,79.43,52.8,80.18,52.31,80.93Z"/><path class="cls-3" d="M46.45,91.5c.33-.7.67-1.4,1-2.09C47.12,90.1,46.78,90.8,46.45,91.5Z"/><path class="cls-3" d="M50.21,84.35c.43-.74.87-1.48,1.33-2.2C51.08,82.87,50.64,83.61,50.21,84.35Z"/><path class="cls-3" d="M38.27,128.44v0c0,1.48,0,2.95.11,4.41C38.31,131.4,38.27,129.93,38.27,128.44Z"/><path class="cls-3" d="M50.21,172.54c-.27-.45-.53-.91-.79-1.37C49.68,171.63,49.94,172.09,50.21,172.54Z"/><path class="cls-3" d="M52.31,176c-.26-.4-.52-.8-.77-1.21C51.79,175.15,52.05,175.55,52.31,176Z"/><path class="cls-3" d="M48.25,169c-.26-.51-.53-1-.78-1.54C47.72,168,48,168.51,48.25,169Z"/><path class="cls-3" d="M61.45,187.75l.11.12a8,8,0,0,0,1.24,1.29C62.35,188.69,61.89,188.23,61.45,187.75Z"/><path class="cls-3" d="M59.47,185.5l-.7-.8Z"/><path class="cls-3" d="M57,182.44l-.73-.93Z"/><path class="cls-3" d="M46.45,165.38c-.26-.57-.52-1.14-.77-1.71C45.93,164.24,46.19,164.81,46.45,165.38Z"/><path class="cls-3" d="M54.56,179.25c-.25-.35-.51-.7-.76-1.06C54.05,178.55,54.31,178.9,54.56,179.25Z"/><path class="cls-3" d="M39.25,141.5c-.15-1-.27-2-.38-3C39,139.52,39.1,140.52,39.25,141.5Z"/><path class="cls-3" d="M40,145.71c-.18-.9-.33-1.81-.48-2.71C39.65,143.9,39.8,144.81,40,145.71Z"/><path class="cls-3" d="M38.71,137.22c-.11-1.13-.19-2.28-.26-3.43C38.52,134.94,38.6,136.09,38.71,137.22Z"/><path class="cls-3" d="M44.81,161.65c-.26-.63-.5-1.27-.75-1.91C44.31,160.38,44.55,161,44.81,161.65Z"/><path class="cls-3" d="M40.92,149.83c-.21-.82-.39-1.65-.58-2.48C40.53,148.18,40.71,149,40.92,149.83Z"/><path class="cls-3" d="M43.34,157.8c-.25-.69-.48-1.39-.71-2.08C42.86,156.41,43.09,157.11,43.34,157.8Z"/><path class="cls-3" d="M42,153.86c-.23-.75-.44-1.52-.65-2.28C41.6,152.34,41.81,153.11,42,153.86Z"/><path class="cls-6" d="M83.29,128.44a54,54,0,0,1,42.35-20.65h.16a33.42,33.42,0,0,0,30.93-46.1l-.71,0a87.55,87.55,0,0,0-80.53,53.2A53.66,53.66,0,0,0,83.29,128.44Z"/><path class="cls-3" d="M385.63,128,316.35,23.64h56.9L410.86,86.8a6.34,6.34,0,0,0,10.78.19l40.89-63.35h56.25L447.3,128a6.35,6.35,0,0,0,0,7.12l71.52,106.63H464.17l-42.69-66.49a6.34,6.34,0,0,0-10.7,0L369,241.76H313.74L385.6,135.07A6.35,6.35,0,0,0,385.63,128Z"/><path class="cls-3" d="M543,241.76V23.64h46.44V241.76Z"/><path class="cls-3" d="M612.3,241.76,702.56,23.64h53.3l90.26,218.12H791.83l-19.62-46.48a6.34,6.34,0,0,0-5.84-3.88H692.05a6.36,6.36,0,0,0-5.85,3.88l-19.62,46.48ZM723.5,90.69l-21.63,53.06a6.34,6.34,0,0,0,5.87,8.74H751a6.35,6.35,0,0,0,5.87-8.74L735.24,90.69A6.34,6.34,0,0,0,723.5,90.69Z"/><path class="cls-3" d="M965.47,22.33q32.7,0,57.56,11.12,29.1,13.41,40.88,44.8,9.15,24.52,9.15,57.56,0,33.36-11.11,57.88-14.07,29.12-43.17,40.88-21.59,8.51-49.71,8.5-37,0-64.09-13.73-22.9-11.44-35-36t-12.1-59.51q0-62.46,31.06-88.95Q915.11,22.66,965.47,22.33ZM965.8,59Q933.74,59,920,79.89q-11.13,16.35-11.12,52.65,0,38.27,13.74,56.25,13.73,17.66,43.49,17.66,28.77,0,42.35-18t13.57-55.59q0-34.35-11.12-52.33Q998.18,59.29,965.8,59Z"/><path class="cls-3" d="M1163.9,144.69l-79.72-121h54.28l44.7,76.26A6.35,6.35,0,0,0,1194,100l47.12-76.38h55.26l-83.92,122.65a6.33,6.33,0,0,0-1.1,3.58v91.89H1165V148.17A6.24,6.24,0,0,0,1163.9,144.69Z"/><path class="cls-3" d="M1362.8,23.64V154.45q0,15.69,2.61,24.36a35,35,0,0,0,8.83,14.88Q1388,207.1,1412.5,207.1q15.7,0,27.31-5.4T1456,187.15q4.57-9.15,4.58-32.7V23.64H1507V152.16q0,25.5-5.39,42t-16.52,26.65q-25.83,22.57-73.25,22.57-50.7,0-73.91-22.24a60.78,60.78,0,0,1-16.67-25.67q-4.59-14.22-4.58-40.06V23.64Z"/><path class="cls-3" d="M1712.7,23.64V62.56h-60.5q-23.54,0-34.33,3.27a34.86,34.86,0,0,0-18,12.75,39.15,39.15,0,0,0-6.7,13.08q-1.8,6.54-3.11,22.24H1712.7v38.91H1590.07q2.61,28.14,16.68,39.08t47.74,11h58.21v38.91h-60.5a279.88,279.88,0,0,1-43.16-2.94q-29.43-4.9-46.77-25.83-24.86-30.09-24.85-81.43,0-56.91,35-88.62a70.05,70.05,0,0,1,25.67-15q13.58-4.25,36.47-4.25Z"/></g></g></svg>